HIERARCHY
ROOT Hips
{
	OFFSET -3.958830 18.904000 13.208200
	CHANNELS 6 Xposition Yposition Zposition Zrotation Yrotation Xrotation 
	JOINT LHipJoint
	{
		OFFSET 0.000000 0.000000 0.000000
		CHANNELS 3 Zrotation Yrotation Xrotation
		JOINT LeftUpLeg
		{
			OFFSET 1.800000 -1.400000 0.085000
			CHANNELS 3 Zrotation Yrotation Xrotation
			JOINT LeftLeg
			{
				OFFSET 2.215000 -6.000000 0.000000
				CHANNELS 3 Zrotation Yrotation Xrotation
				JOINT LeftFoot
				{
					OFFSET 2.500000 -6.900000 0.000000
					CHANNELS 3 Zrotation Yrotation Xrotation
					JOINT LeftToeBase
					{
						OFFSET 0.200000 -0.500000 1.950000
						CHANNELS 3 Zrotation Yrotation Xrotation
						End Site
						{
							OFFSET 0.000000 0.000000 0.000000
						}
					}
				}
			}
		}
	}
	JOINT RHipJoint
	{
		OFFSET 0.000000 0.000000 0.000000
		CHANNELS 3 Zrotation Yrotation Xrotation
		JOINT RightUpLeg
		{
			OFFSET -1.800000 -1.400000 0.085000
			CHANNELS 3 Zrotation Yrotation Xrotation
			JOINT RightLeg
			{
				OFFSET -2.215000 -6.000000 0.000000
				CHANNELS 3 Zrotation Yrotation Xrotation
				JOINT RightFoot
				{
					OFFSET -2.500000 -6.900000 0.000000
					CHANNELS 3 Zrotation Yrotation Xrotation
					JOINT RightToeBase
					{
						OFFSET -0.200000 -0.500000 1.950000
						CHANNELS 3 Zrotation Yrotation Xrotation
						End Site
						{
							OFFSET 0.000000 0.000000 0.000000
						}
					}
				}
			}
		}
	}
	JOINT LowerBack
	{
		OFFSET 0.000000 0.000000 0.000000
		CHANNELS 3 Zrotation Yrotation Xrotation
		JOINT Spine
		{
			OFFSET -0.087000 1.940000 -0.288900
			CHANNELS 3 Zrotation Yrotation Xrotation
			JOINT Spine1
			{
				OFFSET 0.000000 1.950000 0.060000
				CHANNELS 3 Zrotation Yrotation Xrotation
				JOINT Neck
				{
					OFFSET 0.000000 0.000000 0.000000
					CHANNELS 3 Zrotation Yrotation Xrotation
					JOINT Neck1
					{
						OFFSET 0.000000 1.600000 0.340000
						CHANNELS 3 Zrotation Yrotation Xrotation
						JOINT Head
						{
							OFFSET 0.000000 1.667000 -0.240000
							CHANNELS 3 Zrotation Yrotation Xrotation
							End Site
							{
								OFFSET 0.000000 0.000000 0.000000
							}
						}
					}
				}
				JOINT LeftShoulder
				{
					OFFSET 0.000000 0.000000 0.000000
					CHANNELS 3 Zrotation Yrotation Xrotation
					JOINT LeftArm
					{
						OFFSET 2.700000 1.550000 -0.730000
						CHANNELS 3 Zrotation Yrotation Xrotation
						JOINT LeftForeArm
						{
							OFFSET 5.450000 0.000000 0.000000
							CHANNELS 3 Zrotation Yrotation Xrotation
							JOINT LeftHand
							{
								OFFSET 3.450000 0.000000 0.000000
								CHANNELS 3 Zrotation Yrotation Xrotation
								JOINT LeftHandIndex1
								{
									OFFSET 0.750000 0.000000 0.000000
									CHANNELS 3 Zrotation Yrotation Xrotation
									End Site
									{
										OFFSET 0.000000 0.000000 0.000000
									}
								}
							}
						}
					}
				}
				JOINT RightShoulder
				{
					OFFSET 0.000000 0.000000 0.000000
					CHANNELS 3 Zrotation Yrotation Xrotation
					JOINT RightArm
					{
						OFFSET -2.700000 1.550000 -0.730000
						CHANNELS 3 Zrotation Yrotation Xrotation
						JOINT RightForeArm
						{
							OFFSET -5.450000 0.000000 0.000000
							CHANNELS 3 Zrotation Yrotation Xrotation
							JOINT RightHand
							{
								OFFSET -3.450000 0.000000 0.000000
								CHANNELS 3 Zrotation Yrotation Xrotation
								JOINT RightHandIndex1
								{
									OFFSET -0.750000 0.000000 0.000000
									CHANNELS 3 Zrotation Yrotation Xrotation
									End Site
									{
										OFFSET 0.000000 0.000000 0.000000
									}
								}
							}
						}
					}
				}
			}
		}
	}
}
MOTION
Frames: 8
Frame Time: 0.016667
-1.702440 17.437090 -1.653830 -4.904018 -2.324342 -12.463100 -14.897061 13.465668 2.735690 26.059262 0.670616 -3.288077 -4.688569 7.173187 11.862101 -0.354141 6.044771 2.752552 0.287260 -0.220210 0.153830 18.422581 -11.042548 2.676161 -4.732956 0.124015 -2.947010 13.238919 -9.685015 22.937160 -0.649155 -5.436955 2.831369 -0.064320 0.539300 0.082380 -4.104675 -1.730732 -7.643092 8.001592 -4.736912 25.412544 -11.822769 0.549599 19.544113 1.977644 -8.931019 -14.843093 -21.899453 3.152175 38.860004 6.516200 -7.798590 -9.664420 4.587334 -17.184145 8.575263 1.842066 -3.760588 -4.491534 107.645111 -52.851944 -71.629381 -3.789217 2.058861 0.724390 0.110960 -0.218490 0.257810 -7.776462 23.952868 9.546224 -6.933540 0.934541 -18.076462 -87.612241 5.264375 -12.104737 2.364483 -1.998734 -0.417040 0.516930 0.131090 -0.205190 
-1.703660 17.484250 -1.666670 -4.551205 -2.353193 -11.928315 -14.841489 13.402095 2.691299 25.167010 0.603102 -3.406296 -4.637370 6.932891 11.285404 -0.386298 5.874932 2.808307 0.309950 -0.187280 0.168360 18.474504 -11.144644 2.673543 -5.035875 0.034782 -3.365732 12.919928 -9.389111 22.118824 -0.630175 -5.300424 2.872320 -0.047930 0.526940 0.079390 -4.255892 -1.491062 -7.586749 8.417374 -4.771746 24.489105 -12.907985 0.778610 19.964928 1.879286 -8.525351 -14.704976 -21.571301 3.334000 40.422892 7.240050 -7.909410 -10.053110 5.497768 -17.419700 8.318358 3.092181 -5.717863 -3.969956 107.898258 -53.381024 -72.061034 -3.765887 2.018821 0.731790 0.099600 -0.202220 0.259450 -8.584395 23.602029 9.484648 -7.170129 1.714654 -17.771461 -84.518614 5.020568 -11.167364 2.391742 -1.976804 -0.408830 0.523900 0.121140 -0.204390 
-1.717120 17.561980 -1.690940 -4.233337 -2.096342 -10.945005 -14.827572 13.370276 2.665418 24.274502 0.533269 -4.137652 -4.456226 6.611812 10.423069 -0.450288 5.670004 2.878074 0.311000 -0.172190 0.173020 18.496069 -11.145197 2.668089 -5.349761 -0.080426 -3.896014 12.939711 -8.985438 20.431789 -0.593659 -5.062278 2.957578 -0.032290 0.529680 0.043900 -4.313519 -1.482493 -7.533424 8.540216 -4.787477 22.948243 -13.590444 1.090740 20.554896 1.843781 -8.223509 -14.782963 -22.338313 4.090209 43.607648 8.070030 -8.209220 -10.214760 7.312347 -17.625747 8.131258 3.916095 -9.189436 -2.955893 108.235739 -54.266234 -72.883252 -3.742741 1.898294 0.758890 0.081660 -0.187910 0.258830 -10.374040 23.300705 9.418526 -9.053930 2.740281 -16.908040 -77.479438 5.740191 -9.986232 2.427289 -1.879842 -0.433900 0.579960 0.125240 -0.206750 
-1.740250 17.644990 -1.722900 -3.793612 -2.232415 -9.402124 -14.809457 13.258068 2.679663 23.447334 0.414990 -5.243165 -5.044035 6.424392 9.425943 -0.519464 5.502810 2.929902 0.338760 -0.128230 0.215400 18.536357 -11.112740 2.650119 -5.558164 -0.000987 -5.041539 12.927023 -8.473018 18.729143 -0.552924 -4.751243 3.068025 -0.001820 0.521770 -0.007670 -4.403537 -1.405617 -7.470968 8.793697 -4.834017 20.851848 -14.765233 1.438036 20.606775 1.844352 -8.141208 -14.532317 -23.731918 5.055641 47.126176 8.972130 -8.557930 -11.946400 8.642621 -17.484928 7.505229 5.083270 -13.658726 -1.662975 107.862502 -55.025990 -72.343005 -3.682492 1.719992 0.797420 0.045960 -0.163500 0.253220 -11.815360 22.854024 8.910667 -12.213883 5.558085 -15.417123 -68.464436 5.942974 -8.162918 2.439717 -1.728766 -0.460420 0.664640 0.116690 -0.213720 
-1.746040 17.724910 -1.771800 -3.647093 -2.266252 -9.030538 -14.733745 13.092030 2.639903 22.911860 0.340640 -5.472993 -5.469001 6.302711 8.931674 -0.560574 5.419270 2.931852 0.386420 -0.084070 0.261310 18.627557 -11.150851 2.685095 -6.132685 -0.065448 -5.136559 13.728304 -8.279383 16.836897 -0.572732 -4.672810 3.070961 0.020510 0.487170 0.014550 -4.647829 -1.106872 -7.431331 9.817032 -5.503206 20.578342 -17.014711 1.465740 21.280215 2.089363 -7.574071 -14.569392 -23.453906 5.721347 49.632720 9.117080 -8.182870 -12.418790 10.566061 -18.680522 6.853097 7.398119 -16.965010 -1.823654 106.522889 -55.365081 -70.356405 -3.670039 1.664462 0.823600 0.028350 -0.130140 0.242250 -14.303616 23.048129 8.911808 -15.228866 6.637028 -14.426890 -57.117103 3.816355 -5.553390 2.565594 -1.664078 -0.438860 0.652920 0.110490 -0.228330 
-1.753910 17.785460 -1.819970 -3.797251 -2.163422 -7.861006 -14.679730 12.966623 2.609890 22.669404 0.192915 -6.821069 -5.676465 6.177377 8.803848 -0.640215 5.314448 2.921915 0.402750 -0.048230 0.257540 18.711992 -11.096032 2.700747 -5.899094 0.087030 -6.089984 14.002172 -7.886901 15.236889 -0.549884 -4.484447 3.108405 0.053760 0.478360 0.014420 -4.857898 -1.014598 -7.362218 11.044958 -6.558857 19.691017 -19.194478 0.769303 20.995135 2.073551 -7.800276 -14.571532 -25.098147 7.321627 50.546213 9.563200 -7.588920 -13.151510 12.808204 -19.484272 6.009980 8.838906 -20.773729 -2.175085 101.056860 -56.449669 -64.193414 -3.632423 1.532194 0.841330 0.019120 -0.117960 0.227270 -16.705967 23.229154 8.348516 -19.367420 9.001205 -12.462854 -44.674977 1.130005 -3.214512 2.622875 -1.510150 -0.442290 0.665600 0.130510 -0.232010 
-1.777460 17.835180 -1.861700 -3.543284 -2.082359 -6.855541 -14.669711 12.965078 2.586703 22.059939 0.114129 -8.276275 -5.537728 6.007380 8.931697 -0.700417 5.138042 2.929103 0.441820 0.011400 0.278950 18.730397 -11.065992 2.693614 -5.826673 0.368717 -7.249656 13.584616 -7.519814 14.737650 -0.519249 -4.305341 3.133523 0.089500 0.441100 0.025260 -4.905829 -1.071032 -7.308234 11.200946 -6.823677 19.260670 -20.559561 0.701430 20.556386 2.008540 -7.585247 -14.507495 -25.843344 8.315675 51.386630 9.804540 -7.049870 -13.541470 14.867688 -20.263317 4.765455 9.915182 -25.750629 -2.517088 94.885678 -58.277867 -58.536432 -3.565230 1.450036 0.837780 0.006420 -0.098650 0.209630 -18.899953 23.404147 7.886711 -22.694071 10.366159 -10.124662 -33.642533 -1.362566 -1.644960 2.660976 -1.323284 -0.415370 0.639770 0.126910 -0.236170 
-1.799780 17.886710 -1.902020 -2.680616 -1.213951 -5.682921 -14.664040 13.013544 2.559642 20.791292 -0.079079 -10.226487 -5.457737 5.831406 9.538107 -0.749056 4.883203 2.966478 0.492540 0.080810 0.292110 18.732575 -11.054915 2.679626 -6.300023 0.509302 -8.494586 12.953726 -7.079537 13.849413 -0.497997 -4.095433 3.171165 0.119130 0.391690 0.048960 -4.932003 -1.182472 -7.247185 10.781100 -7.016834 18.395417 -22.396512 0.667020 19.942054 2.082472 -6.795714 -14.878426 -25.772519 9.564104 53.897706 10.351650 -6.362140 -12.782920 16.454334 -21.513247 3.852057 10.106976 -30.244946 -2.608427 89.717754 -59.682473 -54.075656 -3.494695 1.466520 0.842550 -0.012160 -0.061250 0.219510 -20.873890 23.761060 7.502897 -24.142628 11.736963 -7.477344 -24.533678 -2.686946 -0.760429 2.635159 -1.133021 -0.374570 0.588080 0.100580 -0.236220 
